<svg width="20" height="20" viewBox="0 0 20 20" fill="none" xmlns="http://www.w3.org/2000/svg">
<path d="M2.09766 1.95508H3.50272C4.37483 1.95508 5.06121 2.70606 4.98854 3.57009L4.3183 11.6129C4.20525 12.9291 5.24693 14.0596 6.57124 14.0596H15.1712C16.334 14.0596 17.3515 13.1068 17.4403 11.952L17.8764 5.89572C17.9733 4.55526 16.9558 3.46511 15.6073 3.46511H5.18234" stroke="#1A1A1A" stroke-miterlimit="10" stroke-linecap="round" stroke-linejoin="round"/>
<path d="M13.6051 18.1052C14.1626 18.1052 14.6145 17.6533 14.6145 17.0958C14.6145 16.5383 14.1626 16.0864 13.6051 16.0864C13.0476 16.0864 12.5957 16.5383 12.5957 17.0958C12.5957 17.6533 13.0476 18.1052 13.6051 18.1052Z" stroke="#1A1A1A" stroke-miterlimit="10" stroke-linecap="round" stroke-linejoin="round"/>
<path d="M7.14464 18.1052C7.70211 18.1052 8.15402 17.6533 8.15402 17.0958C8.15402 16.5383 7.70211 16.0864 7.14464 16.0864C6.58717 16.0864 6.13525 16.5383 6.13525 17.0958C6.13525 17.6533 6.58717 18.1052 7.14464 18.1052Z" stroke="#1A1A1A" stroke-miterlimit="10" stroke-linecap="round" stroke-linejoin="round"/>
<path d="M7.75049 6.7998H17.4406" stroke="#1A1A1A" stroke-miterlimit="10" stroke-linecap="round" stroke-linejoin="round"/>
</svg>
