<svg width="31" height="31" viewBox="0 0 31 31" fill="none" xmlns="http://www.w3.org/2000/svg">
<path d="M22.3326 5.34729L22.2422 10.2427C22.2292 10.9143 22.6556 11.8056 23.1981 12.206L26.4014 14.6343C28.4551 16.1843 28.1193 18.0831 25.6651 18.8581L21.493 20.1627C20.7955 20.3822 20.0593 21.1444 19.8785 21.8548L18.8839 25.6522C18.0959 28.6489 16.1326 28.946 14.5051 26.311L12.2317 22.6298C11.8184 21.9581 10.8367 21.4544 10.0617 21.4931L5.74762 21.7127C2.66054 21.8677 1.78219 20.0852 3.79719 17.7344L6.35467 14.7635C6.83259 14.2081 7.05216 13.1748 6.83258 12.4773L5.52806 8.30518C4.76598 5.85101 6.13513 4.49478 8.57638 5.29561L12.3868 6.54853C13.0326 6.7552 14.0014 6.6131 14.5439 6.21268L18.5222 3.34518C20.6664 1.79518 22.3842 2.69937 22.3326 5.34729Z" stroke="#FD7FA4" stroke-width="2" stroke-linecap="round" stroke-linejoin="round"/>
<path d="M28.3004 28.4162L24.3867 24.5024" stroke="#FD7FA4" stroke-width="2" stroke-linecap="round" stroke-linejoin="round"/>
</svg>
