<svg width="24" height="25" viewBox="0 0 24 25" fill="none" xmlns="http://www.w3.org/2000/svg">
<path d="M21.97 18.9784C21.97 19.3384 21.89 19.7084 21.72 20.0684C21.55 20.4284 21.33 20.7684 21.04 21.0884C20.55 21.6284 20.01 22.0184 19.4 22.2684C18.8 22.5184 18.15 22.6484 17.45 22.6484C16.43 22.6484 15.34 22.4084 14.19 21.9184C13.04 21.4284 11.89 20.7684 10.75 19.9384C9.6 19.0984 8.51 18.1684 7.47 17.1384C6.44 16.0984 5.51 15.0084 4.68 13.8684C3.86 12.7284 3.2 11.5884 2.72 10.4584C2.24 9.31844 2 8.22844 2 7.18844C2 6.50844 2.12 5.85844 2.36 5.25844C2.6 4.64844 2.98 4.08844 3.51 3.58844C4.15 2.95844 4.85 2.64844 5.59 2.64844C5.87 2.64844 6.15 2.70844 6.4 2.82844C6.66 2.94844 6.89 3.12844 7.07 3.38844L9.39 6.65844C9.57 6.90844 9.7 7.13844 9.79 7.35844C9.88 7.56844 9.93 7.77844 9.93 7.96844C9.93 8.20844 9.86 8.44844 9.72 8.67844C9.59 8.90844 9.4 9.14844 9.16 9.38844L8.4 10.1784C8.29 10.2884 8.24 10.4184 8.24 10.5784C8.24 10.6584 8.25 10.7284 8.27 10.8084C8.3 10.8884 8.33 10.9484 8.35 11.0084C8.53 11.3384 8.84 11.7684 9.28 12.2884C9.73 12.8084 10.21 13.3384 10.73 13.8684C11.27 14.3984 11.79 14.8884 12.32 15.3384C12.84 15.7784 13.27 16.0784 13.61 16.2584C13.66 16.2784 13.72 16.3084 13.79 16.3384C13.87 16.3684 13.95 16.3784 14.04 16.3784C14.21 16.3784 14.34 16.3184 14.45 16.2084L15.21 15.4584C15.46 15.2084 15.7 15.0184 15.93 14.8984C16.16 14.7584 16.39 14.6884 16.64 14.6884C16.83 14.6884 17.03 14.7284 17.25 14.8184C17.47 14.9084 17.7 15.0384 17.95 15.2084L21.26 17.5584C21.52 17.7384 21.7 17.9484 21.81 18.1984C21.91 18.4484 21.97 18.6984 21.97 18.9784Z" stroke="#1A1A1A" stroke-width="1.5" stroke-miterlimit="10"/>
</svg>
