<svg width="23" height="23" viewBox="0 0 23 23" fill="none" xmlns="http://www.w3.org/2000/svg">
<path d="M21.7788 17.9523C21.7788 18.3147 21.6982 18.6872 21.5271 19.0497C21.3559 19.4121 21.1344 19.7544 20.8425 20.0766C20.3491 20.6203 19.8055 21.0129 19.1913 21.2646C18.5873 21.5163 17.9329 21.6472 17.2281 21.6472C16.2012 21.6472 15.1038 21.4056 13.946 20.9122C12.7882 20.4189 11.6304 19.7544 10.4827 18.9188C9.32488 18.0731 8.22748 17.1368 7.18043 16.0998C6.14345 15.0528 5.20714 13.9554 4.37151 12.8076C3.54595 11.6599 2.88148 10.5122 2.39822 9.37453C1.91497 8.2268 1.67334 7.1294 1.67334 6.08235C1.67334 5.39774 1.79415 4.74333 2.03578 4.13926C2.27741 3.52513 2.65999 2.96133 3.19358 2.45794C3.83792 1.82367 4.54267 1.51157 5.28768 1.51157C5.56958 1.51157 5.85148 1.57197 6.10318 1.69279C6.36494 1.8136 6.5965 1.99482 6.77772 2.25658L9.11345 5.54876C9.29467 5.80045 9.42555 6.03201 9.51616 6.2535C9.60677 6.46493 9.65711 6.67635 9.65711 6.86764C9.65711 7.10927 9.58664 7.3509 9.44569 7.58246C9.31481 7.81401 9.12352 8.05564 8.88189 8.29727L8.11674 9.09263C8.00599 9.20337 7.95565 9.33425 7.95565 9.49534C7.95565 9.57588 7.96572 9.64636 7.98586 9.7269C8.01606 9.80744 8.04626 9.86785 8.0664 9.92825C8.24762 10.2605 8.55972 10.6934 9.00271 11.2169C9.45576 11.7405 9.93901 12.2741 10.4625 12.8076C11.0062 13.3412 11.5297 13.8346 12.0633 14.2876C12.5868 14.7306 13.0198 15.0326 13.3621 15.2139C13.4124 15.234 13.4728 15.2642 13.5433 15.2944C13.6238 15.3246 13.7044 15.3347 13.795 15.3347C13.9661 15.3347 14.097 15.2743 14.2078 15.1635L14.9729 14.4084C15.2246 14.1567 15.4662 13.9654 15.6978 13.8446C15.9294 13.7037 16.1609 13.6332 16.4126 13.6332C16.6039 13.6332 16.8053 13.6735 17.0268 13.7641C17.2482 13.8547 17.4798 13.9856 17.7315 14.1567L21.0639 16.5227C21.3257 16.7039 21.5069 16.9153 21.6177 17.167C21.7184 17.4187 21.7788 17.6704 21.7788 17.9523Z" stroke="#F9F9F9" stroke-width="1.5" stroke-miterlimit="10"/>
</svg>
