<svg width="24" height="24" viewBox="0 0 24 24" fill="none" xmlns="http://www.w3.org/2000/svg">
<g clip-path="url(#clip0_4141_15542)">
<path d="M11.2083 11.4417L0.0996094 21.9698C0.224359 22.3698 0.448539 22.7386 0.755011 23.0481C1.06148 23.3576 1.44213 23.5997 1.86786 23.7558C2.2936 23.9118 2.75314 23.9778 3.21136 23.9485C3.66958 23.9193 4.11435 23.7957 4.51167 23.5872L17.0111 17.1475L11.2083 11.4417Z" fill="#EA4335"/>
<path d="M22.4405 9.65206L17.0354 6.85144L10.9512 11.6811L17.0601 17.1324L22.4241 14.3618C22.8993 14.1367 23.2973 13.7983 23.575 13.3832C23.8527 12.9681 23.9996 12.4921 23.9996 12.0069C23.9996 11.5217 23.8527 11.0457 23.575 10.6306C23.2973 10.2155 22.8993 9.87706 22.4241 9.65198H22.4407L22.4405 9.65206Z" fill="#FBBC04"/>
<path d="M0.099406 1.99182C0.03226 2.21637 -0.0011651 2.44808 3.0997e-05 2.6807V21.2809C0.000727169 21.5134 0.0341202 21.7449 0.099406 21.9698L11.5889 11.7112L0.099406 1.99182Z" fill="#4285F4"/>
<path d="M11.2911 11.9808L17.0359 6.85154L4.55311 0.381885C4.08345 0.133071 3.54929 0.00130453 3.00502 5.20116e-06C1.65436 -0.00236936 0.466922 0.808542 0.0996094 1.98437L11.2911 11.9808Z" fill="#34A853"/>
</g>
<defs>
<clipPath id="clip0_4141_15542">
<rect width="24" height="24" fill="white"/>
</clipPath>
</defs>
</svg>
