<svg width="24" height="24" viewBox="0 0 24 24" fill="none" xmlns="http://www.w3.org/2000/svg">
<g clip-path="url(#clip0_4141_15552)">
<path d="M5.256 0H18.744C21.6469 0 24 2.35312 24 5.256V18.744C24 21.6469 21.6469 24 18.744 24H5.256C2.35312 24 0 21.6469 0 18.744V5.256C0 2.35312 2.35312 0 5.256 0Z" fill="url(#paint0_linear_4141_15552)"/>
<path d="M7.69133 17.4197L7.69358 17.4204L6.87299 18.8417C6.57345 19.3605 5.91008 19.5382 5.39127 19.2387C4.87255 18.9392 4.6947 18.2758 4.99423 17.757L5.59873 16.71L5.65677 16.6095C5.76036 16.4606 6.01602 16.2036 6.52742 16.2519C6.52742 16.2519 7.73089 16.3825 7.81798 17.008C7.81798 17.008 7.8298 17.2138 7.69133 17.4197ZM19.3297 13.7897H16.7709C16.5966 13.778 16.5206 13.7157 16.4906 13.6795L16.4887 13.6763L13.7496 8.93194L13.7461 8.93428L13.5818 8.69878C13.3126 8.28703 12.8851 9.34003 12.8851 9.34003C12.3746 10.5134 12.9575 11.8474 13.1607 12.2506L16.9653 18.8403C17.2647 19.359 17.9281 19.5368 18.447 19.2372C18.9657 18.9377 19.1435 18.2743 18.8439 17.7555L17.8926 16.1077C17.8742 16.0678 17.8421 15.9594 18.0372 15.959H19.3297C19.9288 15.959 20.4144 15.4733 20.4144 14.8743C20.4144 14.2752 19.9288 13.7897 19.3297 13.7897ZM14.3597 15.2642C14.3597 15.2642 14.4963 15.959 13.9678 15.959H4.50852C3.90945 15.959 3.42383 15.4733 3.42383 14.8743C3.42383 14.2752 3.90945 13.7896 4.50852 13.7896H6.94039C7.33302 13.7669 7.42602 13.5402 7.42602 13.5402L7.42827 13.5413L10.6026 8.04309L10.6017 8.04291C10.6595 7.93669 10.6114 7.83628 10.603 7.82044L9.55461 6.00459C9.25508 5.48588 9.43283 4.82241 9.95164 4.52297C10.4705 4.22344 11.1338 4.40109 11.4334 4.91991L11.9195 5.76206L12.4049 4.92141C12.7044 4.40269 13.3678 4.22484 13.8866 4.52447C14.4054 4.824 14.5832 5.48728 14.2836 6.00609L9.86633 13.657C9.84702 13.7036 9.84111 13.7768 9.98483 13.7896H12.6252L12.6258 13.8154C12.6258 13.8154 14.1518 13.8391 14.3597 15.2642Z" fill="white"/>
</g>
<defs>
<linearGradient id="paint0_linear_4141_15552" x1="1200" y1="0" x2="1200" y2="2400" gradientUnits="userSpaceOnUse">
<stop stop-color="#17C9FB"/>
<stop offset="1" stop-color="#1A74E8"/>
</linearGradient>
<clipPath id="clip0_4141_15552">
<rect width="24" height="24" fill="white"/>
</clipPath>
</defs>
</svg>
