<svg width="26" height="25" viewBox="0 0 26 25" fill="none" xmlns="http://www.w3.org/2000/svg">
<path d="M13.0175 3.3483C9.68507 3.3483 6.97683 6.05654 6.97683 9.38898V12.2986C6.97683 12.9127 6.71507 13.849 6.40297 14.3725L5.24517 16.2955C4.53035 17.4835 5.02368 18.8024 6.33249 19.2454C10.6717 20.6951 15.3532 20.6951 19.6925 19.2454C20.9107 18.8427 21.4443 17.403 20.7798 16.2955L19.622 14.3725C19.32 13.849 19.0582 12.9127 19.0582 12.2986V9.38898C19.0582 6.06661 16.3399 3.3483 13.0175 3.3483Z" stroke="#1A1A1A" stroke-width="1.5" stroke-miterlimit="10" stroke-linecap="round"/>
<path d="M14.8806 3.64034C14.5685 3.54973 14.2463 3.47925 13.9141 3.43898C12.9476 3.31817 12.0213 3.38864 11.1555 3.64034C11.4475 2.89532 12.1724 2.3718 13.0181 2.3718C13.8638 2.3718 14.5886 2.89532 14.8806 3.64034Z" stroke="#1A1A1A" stroke-width="1.5" stroke-miterlimit="10" stroke-linecap="round" stroke-linejoin="round"/>
<path d="M16.038 19.6079C16.038 21.2691 14.6788 22.6283 13.0177 22.6283C12.1921 22.6283 11.4269 22.286 10.8833 21.7423C10.3396 21.1987 9.99731 20.4335 9.99731 19.6079" stroke="#1A1A1A" stroke-width="1.5" stroke-miterlimit="10"/>
</svg>
