<svg width="25" height="24" viewBox="0 0 25 24" fill="none" xmlns="http://www.w3.org/2000/svg">
<path d="M2.58594 2H4.32594C5.40594 2 6.25594 2.93 6.16594 4L5.33594 13.96C5.19594 15.59 6.48593 16.99 8.12593 16.99H18.7759C20.2159 16.99 21.4759 15.81 21.5859 14.38L22.1259 6.88C22.2459 5.22 20.9859 3.87 19.3159 3.87H6.40594" stroke="#1A1A1A" stroke-width="1.5" stroke-miterlimit="10" stroke-linecap="round" stroke-linejoin="round"/>
<path d="M16.8359 22C17.5263 22 18.0859 21.4404 18.0859 20.75C18.0859 20.0596 17.5263 19.5 16.8359 19.5C16.1456 19.5 15.5859 20.0596 15.5859 20.75C15.5859 21.4404 16.1456 22 16.8359 22Z" stroke="#1A1A1A" stroke-width="1.5" stroke-miterlimit="10" stroke-linecap="round" stroke-linejoin="round"/>
<path d="M8.83594 22C9.52629 22 10.0859 21.4404 10.0859 20.75C10.0859 20.0596 9.52629 19.5 8.83594 19.5C8.14558 19.5 7.58594 20.0596 7.58594 20.75C7.58594 21.4404 8.14558 22 8.83594 22Z" stroke="#1A1A1A" stroke-width="1.5" stroke-miterlimit="10" stroke-linecap="round" stroke-linejoin="round"/>
<path d="M9.58594 8H21.5859" stroke="#1A1A1A" stroke-width="1.5" stroke-miterlimit="10" stroke-linecap="round" stroke-linejoin="round"/>
</svg>
