<svg width="30" height="31" viewBox="0 0 30 31" fill="none" xmlns="http://www.w3.org/2000/svg">
<path d="M3.75342 14.4272V20.2007C3.75342 25.9742 5.99781 28.2887 11.5963 28.2887H18.317C23.9155 28.2887 26.1599 25.9742 26.1599 20.2007V14.4272" stroke="#FD7FA4" stroke-width="2" stroke-linecap="round" stroke-linejoin="round"/>
<path d="M14.9629 15.4303C17.2447 15.4303 18.928 13.5143 18.7035 11.1612L17.8806 2.57178H12.0576L11.2222 11.1612C10.9978 13.5143 12.6811 15.4303 14.9629 15.4303Z" stroke="#FD7FA4" stroke-width="2" stroke-linecap="round" stroke-linejoin="round"/>
<path d="M22.8306 15.4303C25.3493 15.4303 27.1947 13.3215 26.9453 10.7369L26.5962 7.20083C26.1473 3.85763 24.9004 2.57178 21.6336 2.57178H17.8306L18.7034 11.5856C18.9154 13.7072 20.7732 15.4303 22.8306 15.4303Z" stroke="#FD7FA4" stroke-width="2" stroke-linecap="round" stroke-linejoin="round"/>
<path d="M7.0328 15.4303C9.09015 15.4303 10.948 13.7072 11.1475 11.5856L11.4218 8.74385L12.0203 2.57178H8.21734C4.9505 2.57178 3.70362 3.85763 3.25474 7.20083L2.91808 10.7369C2.66871 13.3215 4.51409 15.4303 7.0328 15.4303Z" stroke="#FD7FA4" stroke-width="2" stroke-linecap="round" stroke-linejoin="round"/>
<path d="M14.9629 21.8594C12.8806 21.8594 11.8457 22.9266 11.8457 25.074V28.2886H18.0801V25.074C18.0801 22.9266 17.0452 21.8594 14.9629 21.8594Z" stroke="#FD7FA4" stroke-width="2" stroke-linecap="round" stroke-linejoin="round"/>
</svg>
