<svg width="18" height="18" viewBox="0 0 18 18" fill="none" xmlns="http://www.w3.org/2000/svg">
<path d="M9.91981 3.20219L11.1665 5.69552C11.3365 6.0426 11.7898 6.37552 12.1723 6.43927L14.4319 6.81469C15.8769 7.05552 16.2169 8.10385 15.1756 9.13802L13.419 10.8947C13.1215 11.1922 12.9586 11.7659 13.0506 12.1768L13.5536 14.3514C13.9502 16.0726 13.0365 16.7384 11.5136 15.8389L9.39564 14.5851C9.01314 14.3584 8.38273 14.3584 7.99314 14.5851L5.87523 15.8389C4.35939 16.7384 3.43856 16.0655 3.83523 14.3514L4.33814 12.1768C4.43023 11.7659 4.26731 11.1922 3.96981 10.8947L2.21314 9.13802C1.17898 8.10385 1.51189 7.05552 2.95689 6.81469L5.21648 6.43927C5.59189 6.37552 6.04523 6.0426 6.21523 5.69552L7.46189 3.20219C8.14189 1.84927 9.24689 1.84927 9.91981 3.20219Z" fill="#F9F9F9"/>
</svg>
