<svg width="25" height="25" viewBox="0 0 25 25" fill="none" xmlns="http://www.w3.org/2000/svg">
<path d="M15.9367 16.2039L17.8324 19.9863L19.728 16.2039" stroke="#1A1A1A" stroke-width="1.5" stroke-linecap="round" stroke-linejoin="round"/>
<path d="M17.832 22.931C15.032 22.931 12.752 20.661 12.752 17.851C12.752 15.051 15.022 12.771 17.832 12.771C20.632 12.771 22.912 15.041 22.912 17.851C22.912 20.661 20.642 22.931 17.832 22.931Z" stroke="#1A1A1A" stroke-width="1.5" stroke-linecap="round" stroke-linejoin="round"/>
<path d="M5.93211 2.93115H9.85211C11.9221 2.93115 12.9221 3.93117 12.8721 5.95117V9.87115C12.9221 11.9412 11.9221 12.9412 9.85211 12.8912H5.93211C3.91211 12.9312 2.91211 11.9311 2.91211 9.86115V5.94116C2.91211 3.93116 3.91211 2.93115 5.93211 2.93115Z" stroke="#1A1A1A" stroke-width="1.5" stroke-linecap="round" stroke-linejoin="round"/>
<path d="M2.91211 15.9312C2.91211 19.8012 6.04211 22.9312 9.91211 22.9312L8.86211 21.1812" stroke="#1A1A1A" stroke-width="1.5" stroke-linecap="round" stroke-linejoin="round"/>
<path d="M22.9121 9.93115C22.9121 6.06115 19.7821 2.93115 15.9121 2.93115L16.9621 4.68115" stroke="#1A1A1A" stroke-width="1.5" stroke-linecap="round" stroke-linejoin="round"/>
<path d="M6.94606 9.71505C6.34788 9.71505 5.965 9.7002 5.79743 9.67051C5.47076 9.61535 5.22152 9.45732 5.0497 9.19642C4.94152 9.03308 4.87364 8.84642 4.84606 8.63642C4.83758 8.56005 4.83334 8.48051 4.83334 8.39778C4.83334 8.30657 4.83864 8.21217 4.84925 8.1146C4.86409 7.98308 4.90334 7.79535 4.96697 7.55142C4.98606 7.47293 5.00728 7.39338 5.03061 7.31278C5.03909 7.2852 5.04652 7.25975 5.05288 7.23642C5.05712 7.21732 5.06031 7.20566 5.06243 7.20142L6.0647 7.4846C5.95652 7.87066 5.8844 8.18672 5.84834 8.43278C5.84622 8.44975 5.84516 8.46672 5.84516 8.48369C5.84516 8.52399 5.85258 8.55899 5.86743 8.58869C5.89288 8.64384 5.93849 8.67142 6.00425 8.67142H9.46606C9.65697 8.67142 9.79167 8.64596 9.87016 8.59505C9.95076 8.54626 9.99106 8.46884 9.99106 8.36278C9.99106 8.33096 9.98682 8.29596 9.97834 8.25778C9.95712 8.1496 9.93591 8.03929 9.9147 7.92687C9.90622 7.88445 9.89773 7.83884 9.88925 7.79005L9.87652 7.7296L9.86697 7.66914C9.85212 7.58854 9.8394 7.51854 9.82879 7.45914L10.8279 7.17914C10.8809 7.44217 10.9403 7.74869 11.0061 8.09869C11.023 8.20051 11.0315 8.29808 11.0315 8.39142C11.0315 8.6799 10.9488 8.93869 10.7833 9.16778C10.5182 9.53263 10.0865 9.71505 9.48834 9.71505H6.94606ZM8.6547 7.30323L8.03106 6.67323L8.64834 6.03687L9.2847 6.67323L8.6547 7.30323ZM7.32152 7.30642L6.69788 6.67642L7.31197 6.04005L7.94834 6.67642L7.32152 7.30642Z" fill="#1A1A1A"/>
</svg>
