<svg width="25" height="25" viewBox="0 0 25 25" fill="none" xmlns="http://www.w3.org/2000/svg">
<path d="M10.8604 5.36816V18.8682C10.8604 19.9482 10.4203 20.9382 9.72034 21.6582L9.68036 21.6982C9.59036 21.7882 9.49036 21.8782 9.40036 21.9482C9.10036 22.2082 8.76034 22.4082 8.41034 22.5482C8.30034 22.5982 8.19035 22.6382 8.08035 22.6782C7.69035 22.8082 7.27035 22.8682 6.86035 22.8682C6.59035 22.8682 6.32036 22.8382 6.06036 22.7882C5.93036 22.7582 5.80035 22.7282 5.67035 22.6882C5.51035 22.6382 5.36036 22.5882 5.21036 22.5182C5.21036 22.5082 5.21035 22.5082 5.20035 22.5182C4.92035 22.3782 4.65036 22.2182 4.40036 22.0282L4.39035 22.0182C4.26035 21.9182 4.14036 21.8182 4.03036 21.6982C3.92036 21.5782 3.81035 21.4582 3.70035 21.3282C3.51035 21.0782 3.35036 20.8082 3.21036 20.5282C3.22036 20.5182 3.22036 20.5182 3.21036 20.5182C3.21036 20.5182 3.21035 20.5082 3.20035 20.4982C3.14035 20.3582 3.09034 20.2082 3.04034 20.0582C3.00034 19.9282 2.97034 19.7982 2.94034 19.6682C2.89034 19.4082 2.86035 19.1382 2.86035 18.8682V5.36816C2.86035 3.86816 3.86035 2.86816 5.36035 2.86816H8.36035C9.86035 2.86816 10.8604 3.86816 10.8604 5.36816Z" stroke="#1A1A1A" stroke-width="1.5" stroke-linecap="round" stroke-linejoin="round"/>
<path d="M22.8604 17.3682V20.3682C22.8604 21.8682 21.8604 22.8682 20.3604 22.8682H6.86035C7.27035 22.8682 7.69035 22.8082 8.08035 22.6782C8.19035 22.6382 8.30034 22.5982 8.41034 22.5482C8.76034 22.4082 9.10036 22.2082 9.40036 21.9482C9.49036 21.8782 9.59036 21.7882 9.68036 21.6982L9.72034 21.6582L16.5204 14.8682H20.3604C21.8604 14.8682 22.8604 15.8682 22.8604 17.3682Z" stroke="#1A1A1A" stroke-width="1.5" stroke-linecap="round" stroke-linejoin="round"/>
<path d="M5.67053 22.6881C5.07053 22.5081 4.50055 22.1781 4.03055 21.6981C3.55055 21.2281 3.22053 20.6581 3.04053 20.0581C3.43053 21.3081 4.42053 22.2981 5.67053 22.6881Z" stroke="#1A1A1A" stroke-width="1.5" stroke-linecap="round" stroke-linejoin="round"/>
<path d="M19.2302 12.1581L16.5202 14.8681L9.72021 21.6581C10.4202 20.9381 10.8602 19.9481 10.8602 18.8681V9.20812L13.5702 6.49812C14.6302 5.43813 16.0502 5.43813 17.1102 6.49812L19.2302 8.61812C20.2902 9.67812 20.2902 11.0981 19.2302 12.1581Z" stroke="#1A1A1A" stroke-width="1.5" stroke-linecap="round" stroke-linejoin="round"/>
<path d="M6.86035 19.8682C7.41264 19.8682 7.86035 19.4204 7.86035 18.8682C7.86035 18.3159 7.41264 17.8682 6.86035 17.8682C6.30807 17.8682 5.86035 18.3159 5.86035 18.8682C5.86035 19.4204 6.30807 19.8682 6.86035 19.8682Z" stroke="#1A1A1A" stroke-width="1.5" stroke-linecap="round" stroke-linejoin="round"/>
</svg>
