<svg width="31" height="31" viewBox="0 0 31 31" fill="none" xmlns="http://www.w3.org/2000/svg">
<path d="M15.7063 14.0406C15.5771 14.0277 15.4221 14.0277 15.2801 14.0406C12.2059 13.9372 9.76465 11.4185 9.76465 8.3185C9.76465 5.15391 12.3221 2.5835 15.4996 2.5835C18.6642 2.5835 21.2346 5.15391 21.2346 8.3185C21.2217 11.4185 18.7805 13.9372 15.7063 14.0406Z" stroke="#FD7FA4" stroke-width="2" stroke-linecap="round" stroke-linejoin="round"/>
<path d="M9.24867 18.8065C6.12284 20.899 6.12284 24.309 9.24867 26.3886C12.8008 28.7653 18.6262 28.7653 22.1783 26.3886C25.3041 24.2961 25.3041 20.8861 22.1783 18.8065C18.6391 16.4428 12.8137 16.4428 9.24867 18.8065Z" stroke="#FD7FA4" stroke-width="2" stroke-linecap="round" stroke-linejoin="round"/>
</svg>
